# xmcd CD database file
#
# Track frame offsets:
#	182
#	10027
#	21325
#	32120
#	55457
#	66257
#	78890
#	90380
#	101425
#	112942
#	126737
#	137740
#	151050
#	166042
#	180577
#	199480
#	209242
#	224027
#	233777
#	249327
#	265680
#	279415
#	293052
#	305977
#	322190
#
# Disc length: 4423 seconds
#
# Revision: 2
# Processed by: cddbd v1.5PL3 Copyright (c) Steve Scherf et al.
# Submitted via: CDex 1.51
#
DISCID=73114519
DTITLE=Waylon Jennings - Waylon Jennings: Legendary Country Singer
DYEAR=1996
DGENRE=Country
TTITLE0=When Sin stops
TTITLE1=(That's What You Get) For Lovin' Me
TTITLE2=Only Daddy That'll Walk the Line
TTITLE3=MacArthur Park
TTITLE4=The Taker
TTITLE5=I'm a Ramblin' Man
TTITLE6=Rainy Day Woman
TTITLE7=This Time
TTITLE8=Mammas Don't Let Your Babies Grow Up to Be Cowboys
TTITLE9=Good Hearted Woman
TTITLE10=Dreaming My Dreams with You
TTITLE11=Are You Sure Hank Done It This Way
TTITLE12=Luckenbach, Texas (Back to the Basics of Love)
TTITLE13=Are You Ready for the Country
TTITLE14=I've Always Been Crazy
TTITLE15=The Wurlitzer Prize ( Don't Want to Get Over You)
TTITLE16=There Ain't No Good Chain Gang
TTITLE17=Theme from the Dukes of Hazard (Good Ol' Boys)
TTITLE18=Lucille (You Won't Do Your Daddy's Will)
TTITLE19=I Ain't Living Long Like This
TTITLE20=Drinkin' and Dreamin'
TTITLE21=Amanda
TTITLE22=Just to Satisfy You
TTITLE23=Rose in Paradise
TTITLE24=My Baby Walks All over Me
EXTD=YEAR: 1996
EXTT0=Waylon Jennings
EXTT1=Waylon Jennings
EXTT2=Waylon Jennings
EXTT3=Waylon Jennings and the Kimberlys
EXTT4=Waylon Jennings
EXTT5=Waylon Jennings
EXTT6=Waylon Jennings
EXTT7=Waylon Jennings
EXTT8=Waylon Jennings and Willie Nelson
EXTT9=Waylon Jennings
EXTT10=Waylon Jennings
EXTT11=Waylon Jennings
EXTT12=Waylon Jennings
EXTT13=Waylon Jennings
EXTT14=Waylon Jennings
EXTT15=Waylon Jennings
EXTT16=Waylon Jennings and Johnny Cash
EXTT17=Waylon Jennings
EXTT18=Waylon Jennings
EXTT19=Waylon Jennings
EXTT20=Waylon Jennings
EXTT21=Waylon Jennings
EXTT22=Waylon Jennings and Willie Nelson
EXTT23=Waylon Jennings
EXTT24=Waylon Jennings
PLAYORDER=
